<svg width="28" height="28" viewBox="0 0 28 28" fill="none" xmlns="http://www.w3.org/2000/svg">
<path d="M13.9983 0.291435C6.2685 0.291435 0 6.58444 0 14.3474C0 20.5564 4.011 25.8239 9.576 27.6842C10.276 27.8137 10.5315 27.3797 10.5315 27.0069C10.5315 26.6727 10.5192 25.7889 10.5122 24.6164C6.6185 25.4652 5.796 22.7317 5.796 22.7317C5.16075 21.1077 4.242 20.6754 4.242 20.6754C2.96975 19.8039 4.3365 19.8214 4.3365 19.8214C5.74175 19.9212 6.48025 21.2704 6.48025 21.2704C7.72975 23.4177 9.758 22.7982 10.556 22.4377C10.682 21.5294 11.0442 20.9099 11.445 20.5582C8.337 20.2029 5.068 18.9972 5.068 13.6124C5.068 12.0777 5.614 10.8229 6.51 9.83944C6.36475 9.48419 5.88525 8.05444 6.6465 6.12069C6.6465 6.12069 7.8225 5.74269 10.4965 7.56094C11.613 7.24944 12.81 7.09369 14.0018 7.08844C15.19 7.09544 16.3887 7.24944 17.507 7.56269C20.1792 5.74444 21.3535 6.12244 21.3535 6.12244C22.1165 8.05794 21.637 9.48594 21.4935 9.84119C22.3912 10.8247 22.932 12.0794 22.932 13.6142C22.932 19.0129 19.6595 20.2012 16.541 20.5494C17.0432 20.9834 17.4912 21.8409 17.4912 23.1517C17.4912 25.0312 17.4737 26.5467 17.4737 27.0069C17.4737 27.3832 17.7257 27.8207 18.4362 27.6824C23.9925 25.8204 28 20.5547 28 14.3474C28 6.58444 21.7315 0.291435 13.9983 0.291435Z" fill="black"/>
</svg>
