<svg width="28" height="28" viewBox="0 0 28 28" fill="none" xmlns="http://www.w3.org/2000/svg">
<g clip-path="url(#clip0)">
<path d="M25.7658 5.52183L28 3.3845V2.91667H20.2603L14.7443 16.646L8.46883 2.91667H0.3535V3.3845L2.96333 6.52633C3.21767 6.7585 3.35067 7.098 3.31683 7.43983V19.7867C3.39733 20.2312 3.25267 20.6885 2.94 21.0117L0 24.5747V25.0367H8.33583V24.5688L5.39583 21.0117C5.07733 20.6873 4.92683 20.2382 4.991 19.7867V9.107L12.3083 25.0425H13.1588L19.4507 9.107V21.8015C19.4507 22.1363 19.4507 22.2052 19.2313 22.4245L16.968 24.6143V25.0833H27.9487V24.6155L25.767 22.4793C25.5757 22.3347 25.4765 22.092 25.5173 21.8563V6.14483C25.4765 5.908 25.5745 5.66533 25.7658 5.52183V5.52183Z" fill="black"/>
</g>
<defs>
<clipPath id="clip0">
<rect width="28" height="28" fill="white"/>
</clipPath>
</defs>
</svg>
