<svg width="28" height="28" viewBox="0 0 28 28" fill="none" xmlns="http://www.w3.org/2000/svg">
<g clip-path="url(#clip0)">
<path d="M25.7658 5.52182L28 3.38449V2.91666H20.2603L14.7443 16.646L8.46883 2.91666H0.3535V3.38449L2.96333 6.52632C3.21767 6.75849 3.35067 7.09799 3.31683 7.43982V19.7866C3.39733 20.2311 3.25267 20.6885 2.94 21.0116L0 24.5746V25.0366H8.33583V24.5688L5.39583 21.0116C5.07733 20.6873 4.92683 20.2381 4.991 19.7866V9.10699L12.3083 25.0425H13.1588L19.4507 9.10699V21.8015C19.4507 22.1363 19.4507 22.2051 19.2313 22.4245L16.968 24.6143V25.0833H27.9487V24.6155L25.767 22.4793C25.5757 22.3346 25.4765 22.092 25.5173 21.8563V6.14482C25.4765 5.90799 25.5745 5.66532 25.7658 5.52182V5.52182Z" fill="#606060"/>
</g>
<defs>
<clipPath id="clip0">
<rect width="28" height="28" fill="white"/>
</clipPath>
</defs>
</svg>
